<svg class="vague" xmlns="http://www.w3.org/2000/svg" viewBox="0 0 1440 1000"><path fill="#0099ff" fill-opacity="1" d="M0,224L30,224C60,224,120,224,180,208C240,192,300,160,360,165.3C420,171,480,213,540,234.7C600,256,660,256,720,250.7C780,245,840,235,900,234.7C960,235,1020,245,1080,240C1140,235,1200,213,1260,213.3C1320,213,1380,235,1410,245.3L1440,256L1440,0L1410,0C1380,0,1320,0,1260,0C1200,0,1140,0,1080,0C1020,0,960,0,900,0C840,0,780,0,720,0C660,0,600,0,540,0C480,0,420,0,360,0C300,0,240,0,180,0C120,0,60,0,30,0L0,0Z"></path></svg>